<?xml version="1.0" encoding="utf-8"?>
<!-- Generator: Adobe Illustrator 23.0.3, SVG Export Plug-In . SVG Version: 6.00 Build 0)  -->
<svg version="1.1" id="Capa_1" xmlns="http://www.w3.org/2000/svg" xmlns:xlink="http://www.w3.org/1999/xlink" x="0px" y="0px"
	 viewBox="0 0 365 154.5" style="enable-background:new 0 0 365 154.5;" xml:space="preserve">
<style type="text/css">
	.st0{fill:#FFFFFF;}
</style>
<g>
	<path class="st0" d="M360,68.6L243.5,1.3c-4-2.3-9.1-1.6-12.4,2c-1.7,1.9-2.6,4.4-2.6,7l0,57c0,0,0,0.1-0.1,0.1H10.4
		c-5.4,0-10,4-10.4,9.4c-0.4,5.8,4.3,10.6,10,10.6h218.4c0,0,0.1,0,0.1,0.1l0,56.9c0,2.7,1,5.4,2.9,7.4c2,1.9,4.5,2.9,7.1,2.9
		c1.7,0,3.5-0.4,5-1.3L360,85.9c3.1-1.8,5-5.1,5-8.7C365,73.7,363.1,70.4,360,68.6z M248.5,127.1V27.4c0,0,0-0.1,0.1,0l86.3,49.8
		c0,0,0,0.1,0,0.1L248.5,127.1C248.5,127.2,248.5,127.2,248.5,127.1z"/>
</g>
</svg>
